<?xml version="1.0" standalone="no"?>
<!DOCTYPE svg PUBLIC "-//W3C//DTD SVG 20010904//EN"
 "http://www.w3.org/TR/2001/REC-SVG-20010904/DTD/svg10.dtd">
<svg version="1.0" xmlns="http://www.w3.org/2000/svg"
 width="3000.000000pt" height="3000.000000pt" viewBox="0 0 3000.000000 3000.000000"
 preserveAspectRatio="xMidYMid meet">
<metadata>
Created by potrace 1.11, written by Peter Selinger 2001-2013
</metadata>
<g transform="translate(0.000000,3000.000000) scale(0.100000,-0.100000)"
fill="#000000" stroke="none">
<path d="M0 15000 l0 -15000 15000 0 15000 0 0 15000 0 15000 -15000 0 -15000
0 0 -15000z m7196 12413 c641 -440 1127 -844 1664 -1382 282 -282 437 -451
659 -717 1213 -1452 2069 -3230 2625 -5451 219 -872 381 -1748 526 -2827 45
-338 55 -370 140 -460 57 -60 189 -156 214 -156 9 0 76 11 149 24 515 95 1036
144 1632 153 747 11 1421 -42 2045 -162 l175 -33 67 45 c82 55 157 135 188
200 15 32 29 96 42 188 118 873 186 1297 304 1900 443 2254 1146 4081 2149
5580 440 659 823 1125 1389 1691 368 367 648 617 1021 910 287 226 833 611
846 597 16 -18 130 -414 203 -708 155 -622 246 -1181 296 -1835 18 -231 24
-824 11 -1085 -89 -1794 -638 -3500 -1824 -5669 -331 -606 -766 -1345 -1377
-2336 -184 -300 -224 -376 -245 -475 -18 -84 -19 -216 -4 -320 l11 -75 137
-117 c167 -143 493 -468 624 -622 882 -1034 1366 -2268 1503 -3826 25 -273 25
-753 1 -940 -67 -518 -216 -954 -473 -1380 -397 -661 -1070 -1247 -1939 -1689
-1568 -799 -3796 -1159 -6055 -981 -1580 125 -3049 535 -4120 1150 -1086 623
-1782 1441 -2046 2404 -103 377 -140 761 -115 1206 91 1625 585 2962 1489
4035 135 160 510 535 673 673 141 118 133 104 150 266 11 107 -3 241 -35 333
-15 41 -86 170 -182 326 -684 1117 -987 1628 -1302 2192 -888 1596 -1422 2898
-1706 4165 -369 1641 -317 3259 160 4960 67 240 114 385 123 385 5 0 98 -61
207 -137z"/>
<path d="M10630 13071 c-202 -62 -253 -250 -121 -451 81 -124 346 -352 651
-559 l133 -91 -34 -12 c-75 -26 -209 -101 -291 -163 -494 -373 -616 -1075
-275 -1588 326 -490 949 -669 1485 -426 148 67 338 219 442 354 123 161 213
376 236 570 16 133 1 342 -32 463 -6 20 2 18 107 -29 211 -95 235 -102 329
-102 121 0 185 26 271 112 50 51 70 79 84 121 44 131 7 260 -102 360 -45 41
-100 73 -267 153 -770 369 -1515 767 -2155 1151 -107 64 -217 123 -245 131
-52 16 -173 19 -216 6z m1173 -1720 c250 -88 404 -288 415 -541 8 -184 -43
-316 -173 -446 -93 -94 -184 -145 -305 -170 -197 -42 -431 37 -565 189 -69 78
-123 195 -142 305 -14 83 -14 101 0 184 41 245 223 440 459 493 85 20 234 13
311 -14z"/>
<path d="M19260 13060 c-30 -10 -152 -77 -270 -148 -579 -348 -1309 -739
-2004 -1073 -281 -136 -325 -160 -381 -212 -138 -126 -161 -284 -64 -430 80
-121 241 -185 393 -156 27 5 119 40 205 78 86 38 157 68 158 67 0 0 -8 -39
-18 -86 -25 -110 -32 -300 -15 -410 69 -440 352 -791 762 -945 154 -58 396
-86 559 -64 448 61 829 372 970 793 47 141 58 211 58 381 0 263 -54 442 -198
660 -124 188 -358 375 -554 443 l-34 12 134 93 c363 250 613 475 679 610 71
146 52 272 -53 348 -82 59 -221 76 -327 39z m-706 -1695 c253 -54 443 -272
471 -540 14 -139 -50 -329 -150 -442 -134 -152 -368 -231 -565 -189 -121 25
-212 76 -305 170 -130 130 -181 263 -172 446 17 370 358 632 721 555z"/>
<path d="M14949 9746 c-2 -2 -67 -6 -144 -10 -77 -4 -152 -8 -165 -10 -14 -3
-54 -7 -90 -10 -166 -16 -230 -35 -292 -86 -49 -41 -90 -126 -90 -188 0 -108
69 -197 274 -351 81 -61 285 -194 313 -205 26 -10 -173 -182 -277 -240 -277
-154 -568 -93 -881 183 -74 65 -105 81 -158 81 -152 0 -310 -216 -270 -367 15
-55 43 -87 165 -187 473 -389 857 -502 1141 -337 28 16 96 72 153 125 154 145
253 201 376 213 79 7 170 -16 247 -62 31 -20 107 -82 168 -139 86 -81 129
-113 193 -144 290 -143 624 -57 1000 257 121 101 209 196 239 257 15 32 25 72
27 117 4 57 0 75 -22 122 -86 174 -319 210 -484 74 -26 -21 -84 -70 -130 -108
-85 -71 -181 -127 -263 -154 -198 -67 -405 12 -544 208 -25 34 -45 66 -44 71
0 5 52 50 116 99 162 126 387 347 413 406 28 66 29 155 0 213 -42 88 -128 139
-255 151 -33 4 -76 8 -95 11 -45 6 -615 15 -621 10z"/>
</g>
</svg>
